<svg width="40" height="40" viewBox="0 0 40 40" fill="none" xmlns="http://www.w3.org/2000/svg">
<path d="M20 40C8.954 40 0 31.046 0 20C0 8.954 8.954 0 20 0C31.046 0 40 8.954 40 20C40 31.046 31.046 40 20 40ZM20 36C24.2435 36 28.3131 34.3143 31.3137 31.3137C34.3143 28.3131 36 24.2435 36 20C36 15.7565 34.3143 11.6869 31.3137 8.68629C28.3131 5.68571 24.2435 4 20 4C15.7565 4 11.6869 5.68571 8.68629 8.68629C5.68571 11.6869 4 15.7565 4 20C4 24.2435 5.68571 28.3131 8.68629 31.3137C11.6869 34.3143 15.7565 36 20 36ZM23.656 20L16.586 12.928C16.2217 12.5508 16.0201 12.0456 16.0247 11.5212C16.0292 10.9968 16.2395 10.4952 16.6104 10.1244C16.9812 9.75355 17.4828 9.54321 18.0072 9.53865C18.5316 9.53409 19.0368 9.73568 19.414 10.1L27.9 18.586C28.2749 18.9611 28.4856 19.4697 28.4856 20C28.4856 20.5303 28.2749 21.0389 27.9 21.414L19.414 29.9C19.2295 30.091 19.0088 30.2434 18.7648 30.3482C18.5208 30.453 18.2584 30.5082 17.9928 30.5105C17.7272 30.5128 17.4639 30.4622 17.2181 30.3616C16.9723 30.2611 16.749 30.1126 16.5612 29.9248C16.3734 29.737 16.2249 29.5137 16.1244 29.2679C16.0238 29.0221 15.9732 28.7588 15.9755 28.4932C15.9778 28.2276 16.033 27.9652 16.1378 27.7212C16.2426 27.4772 16.395 27.2565 16.586 27.072L23.656 20Z" fill="#A8ABB1"/>
</svg>
